<?xml version="1.0" encoding="iso-8859-1"?>
<!-- Generator: Adobe Illustrator 19.0.0, SVG Export Plug-In . SVG Version: 6.00 Build 0)  -->
<svg version="1.1" id="Layer_1" xmlns="http://www.w3.org/2000/svg" xmlns:xlink="http://www.w3.org/1999/xlink" x="0px" y="0px"
	 viewBox="0 0 512 512" style="enable-background:new 0 0 512 512;" xml:space="preserve">
<g>
	<g>
		<path d="M503.449,335.574v-70.048c0-7.309-1.331-14.474-3.954-21.296l-33.012-85.829c-4.966-12.91-17.594-21.583-31.425-21.583
			h-59.876v-17.637c0-23.281-18.941-42.221-42.221-42.221H42.221C18.941,76.96,0,95.901,0,119.182v256.534
			c0,9.136,7.432,16.568,16.568,16.568h34.205c6.228,0,11.659-3.458,14.489-8.551h3.162c-0.002,0.178-0.014,0.355-0.014,0.534
			c0,27.996,22.777,50.772,50.772,50.772c17.938,0,33.721-9.359,42.756-23.443c9.034,14.084,24.818,23.443,42.756,23.443
			c27.995,0,50.772-22.776,50.772-50.772c0-0.18-0.012-0.356-0.014-0.534h95.158c-0.002,0.178-0.014,0.355-0.014,0.534
			c0,27.996,22.777,50.772,50.772,50.772c27.995,0,50.772-22.776,50.772-50.772c0-0.18-0.012-0.356-0.014-0.534h43.305
			c9.136,0,16.568-7.432,16.568-16.568v-17.102C512,343.834,508.542,338.403,503.449,335.574z M71.2,367.699h-3.86v-17.637
			c0-0.295,0.239-0.534,0.534-0.534h14.33C77.35,354.692,73.567,360.865,71.2,367.699z M119.182,419.006
			c-19.155,0-34.739-15.583-34.739-34.739s15.584-34.739,34.739-34.739c19.155,0,34.739,15.583,34.739,34.739
			S138.336,419.006,119.182,419.006z M161.937,356.938c-1.698-2.648-3.633-5.127-5.778-7.41h11.557
			C165.571,351.81,163.636,354.29,161.937,356.938z M204.693,419.006c-19.155,0-34.739-15.583-34.739-34.739
			s15.584-34.739,34.739-34.739s34.739,15.583,34.739,34.739S223.848,419.006,204.693,419.006z M67.875,333.495
			c-9.136,0-16.568,7.432-16.568,16.568v25.653c0,0.295-0.239,0.534-0.534,0.534H16.568c-0.295,0-0.534-0.239-0.534-0.534V119.182
			c0-14.44,11.748-26.188,26.188-26.188H332.96c14.44,0,26.188,11.748,26.188,26.188v214.313h-0.534H67.875z M353.388,367.699
			H252.676c-2.367-6.835-6.151-13.007-11.005-18.171h116.943h5.778C359.538,354.692,355.755,360.865,353.388,367.699z
			 M460.326,187.056l23.433,60.927h-30.636c-3.989,0-7.902-1.372-11.018-3.864l-26.101-20.881
			c-4.207-3.365-6.619-8.384-6.619-13.772v-21.876c0-0.295,0.239-0.534,0.534-0.534H460.326z M401.37,419.006
			c-19.155,0-34.739-15.583-34.739-34.739s15.584-34.739,34.739-34.739c19.155,0,34.739,15.583,34.739,34.739
			S420.524,419.006,401.37,419.006z M375.182,333.495V152.852h59.876c7.245,0,13.86,4.543,16.461,11.306l2.64,6.865h-44.238
			c-9.136,0-16.568,7.432-16.568,16.568v21.875c0,10.285,4.606,19.868,12.636,26.292l26.101,20.881
			c5.947,4.758,13.417,7.379,21.034,7.379h34.291v35.273h-9.086c-4.427,0-8.017,3.589-8.017,8.017s3.589,8.017,8.017,8.017h9.086
			v18.171H375.182z M495.967,367.165c0,0.295-0.239,0.534-0.534,0.534h-46.081c-2.367-6.835-6.151-13.007-11.005-18.171h57.086
			c0.295,0,0.534,0.239,0.534,0.534V367.165z"/>
	</g>
</g>
<g>
	<g>
		<path d="M119.182,367.699c-9.136,0-16.568,7.432-16.568,16.568c0,9.136,7.432,16.568,16.568,16.568
			c9.136,0,16.568-7.432,16.568-16.568C135.749,375.131,128.317,367.699,119.182,367.699z"/>
	</g>
</g>
<g>
	<g>
		<path d="M204.693,367.699c-9.136,0-16.568,7.432-16.568,16.568c0,9.136,7.432,16.568,16.568,16.568s16.568-7.432,16.568-16.568
			C221.261,375.131,213.829,367.699,204.693,367.699z"/>
	</g>
</g>
<g>
	<g>
		<path d="M401.37,367.699c-9.136,0-16.568,7.432-16.568,16.568c0,9.136,7.432,16.568,16.568,16.568
			c9.136,0,16.568-7.432,16.568-16.568C417.937,375.131,410.505,367.699,401.37,367.699z"/>
	</g>
</g>
<g>
	<g>
		<path d="M278.124,191.783c-1.019-4.309-5.335-6.977-9.645-5.959c-4.307,1.019-6.975,5.336-5.957,9.646
			c1.367,5.787,2.06,11.767,2.06,17.775c0,26.315-13.108,49.884-33.844,63.838l0.967-1.357c2.571-3.604,1.733-8.611-1.872-11.182
			s-8.611-1.733-11.182,1.872l-17.91,25.113c-1.604,2.25-1.938,5.169-0.88,7.723c1.057,2.554,3.356,4.383,6.082,4.839l30.421,5.095
			c0.448,0.075,0.894,0.111,1.334,0.111c3.846,0,7.241-2.775,7.897-6.693c0.731-4.366-2.216-8.5-6.582-9.231l-3.31-0.555
			c9.304-5.631,17.647-12.871,24.513-21.438c13.154-16.414,20.398-37.06,20.398-58.134
			C280.613,205.997,279.775,198.777,278.124,191.783z"/>
	</g>
</g>
<g>
	<g>
		<path d="M266.783,165.337l-5.322-30.382c-0.764-4.361-4.917-7.279-9.28-6.514c-4.361,0.764-7.277,4.919-6.514,9.28l0.575,3.28
			c-16.404-13.376-36.931-20.782-58.652-20.782c-28.828,0-55.555,13.04-73.328,35.777c-2.726,3.488-2.108,8.526,1.38,11.252
			c1.466,1.146,3.206,1.701,4.932,1.701c2.383,0,4.741-1.057,6.321-3.08c14.714-18.822,36.836-29.618,60.696-29.618
			c16.52,0,32.204,5.179,45.176,14.61l-1.305-0.375c-4.257-1.225-8.698,1.232-9.921,5.488c-1.225,4.255,1.232,8.697,5.488,9.92
			l29.641,8.53c0.731,0.211,1.476,0.313,2.217,0.313c1.953,0,3.868-0.714,5.358-2.053C266.3,170.836,267.26,168.06,266.783,165.337z
			"/>
	</g>
</g>
<g>
	<g>
		<path d="M169.815,288.176c-32.613-7.705-56.022-35.162-58.911-68.045l0.869,1.766c1.395,2.834,4.239,4.478,7.198,4.478
			c1.189,0,2.396-0.266,3.535-0.826c3.972-1.956,5.606-6.761,3.651-10.734l-13.624-27.673c-1.221-2.48-3.633-4.156-6.383-4.435
			c-2.752-0.281-5.45,0.879-7.143,3.062l-18.903,24.374c-2.714,3.498-2.077,8.534,1.422,11.248
			c3.498,2.714,8.534,2.077,11.247-1.422l1.899-2.45c0.91,19.576,8.03,38.556,20.291,53.857
			c12.951,16.161,31.122,27.668,51.168,32.402c0.62,0.146,1.24,0.217,1.849,0.217c3.632,0,6.924-2.486,7.795-6.176
			C176.792,293.512,174.124,289.193,169.815,288.176z"/>
	</g>
</g>
<g>
</g>
<g>
</g>
<g>
</g>
<g>
</g>
<g>
</g>
<g>
</g>
<g>
</g>
<g>
</g>
<g>
</g>
<g>
</g>
<g>
</g>
<g>
</g>
<g>
</g>
<g>
</g>
<g>
</g>
</svg>
