<?xml version="1.0" encoding="iso-8859-1"?>
<!-- Generator: Adobe Illustrator 19.0.0, SVG Export Plug-In . SVG Version: 6.00 Build 0)  -->
<svg version="1.1" id="Layer_1" xmlns="http://www.w3.org/2000/svg" xmlns:xlink="http://www.w3.org/1999/xlink" x="0px" y="0px"
	 viewBox="0 0 512 512" style="enable-background:new 0 0 512 512;" xml:space="preserve">
<path style="fill:#34B772;" d="M511.742,267.13c-0.492-11.667-3.307-22.993-8.451-33.391H333.913v166.957h128
	c27.619,0,50.087-22.468,50.087-50.087v-79.951C512,269.47,511.791,268.312,511.742,267.13z"/>
<path style="fill:#6C5B52;" d="M503.29,233.739c-1.589-3.213-3.301-6.377-5.313-9.392l-45.653-68.483
	c-9.314-13.962-24.895-22.299-41.673-22.299h-76.739V267.13h177.829C511.25,255.464,508.435,244.137,503.29,233.739z"/>
<path style="fill:#DBE1F1;" d="M367.304,400.696V94.609c0-27.619-22.468-50.087-50.087-50.087H50.087
	C22.468,44.522,0,66.99,0,94.609V384c0,9.223,7.473,16.696,16.696,16.696H367.304z"/>
<g>
	<path style="fill:#D0D5E5;" d="M317.217,44.522H183.652v356.174h183.652V94.609C367.304,66.99,344.836,44.522,317.217,44.522z"/>
	<path style="fill:#D0D5E5;" d="M512,300.522h-66.783c-9.223,0-16.696,7.473-16.696,16.696s7.473,16.696,16.696,16.696H512V300.522z
		"/>
</g>
<path style="fill:#79695A;" d="M133.565,467.478c-36.826,0-66.783-29.956-66.783-66.783s29.956-66.783,66.783-66.783
	s66.783,29.956,66.783,66.783S170.391,467.478,133.565,467.478z"/>
<path style="fill:#6C5B52;" d="M200.348,400.696c0-36.826-29.956-66.783-66.783-66.783v133.565
	C170.391,467.478,200.348,437.522,200.348,400.696z"/>
<path style="fill:#DBE1F1;" d="M133.565,367.304c-18.413,0-33.391,14.978-33.391,33.391c0,18.413,14.978,33.391,33.391,33.391
	s33.391-14.978,33.391-33.391C166.957,382.283,151.978,367.304,133.565,367.304z"/>
<path style="fill:#D0D5E5;" d="M166.957,400.696c0-18.413-14.978-33.391-33.391-33.391v66.783
	C151.978,434.087,166.957,419.109,166.957,400.696z"/>
<path style="fill:#79695A;" d="M378.435,467.478c-36.826,0-66.783-29.956-66.783-66.783s29.956-66.783,66.783-66.783
	s66.783,29.956,66.783,66.783S415.261,467.478,378.435,467.478z"/>
<path style="fill:#6C5B52;" d="M445.217,400.696c0-36.826-29.956-66.783-66.783-66.783v133.565
	C415.261,467.478,445.217,437.522,445.217,400.696z"/>
<path style="fill:#DBE1F1;" d="M378.435,367.304c-18.413,0-33.391,14.978-33.391,33.391c0,18.413,14.978,33.391,33.391,33.391
	c18.413,0,33.391-14.978,33.391-33.391C411.826,382.283,396.848,367.304,378.435,367.304z"/>
<path style="fill:#D0D5E5;" d="M411.826,400.696c0-18.413-14.978-33.391-33.391-33.391v66.783
	C396.848,434.087,411.826,419.109,411.826,400.696z"/>
<path style="fill:#34B772;" d="M290.935,239.348l-9.913-14.869c-5.13-7.679-15.489-9.739-23.152-4.63
	c-7.674,5.114-9.75,15.478-4.63,23.152l9.913,14.869c7.388,11.074-0.5,25.956-13.891,25.956h-9.296
	c2.759-6.142,1.72-13.564-3.324-18.603c-6.521-6.521-17.087-6.521-23.609,0l-22.915,22.921c-7.469,6.708-7.189,17.805-0.693,24.302
	l23.609,23.609c6.522,6.522,17.086,6.522,23.609,0c5.113-5.109,6.074-12.651,3.171-18.837h9.449
	C289.212,317.217,313.11,272.589,290.935,239.348z"/>
<g>
	<path style="fill:#7CCC92;" d="M262.457,148.814l-8.682,32.278c-2.337,8.682-11.576,14.581-21.148,11.576l-31.61-8.459
		c-8.904-2.337-14.136-11.576-11.799-20.48c1.891-6.901,7.791-11.464,14.47-12.243l-4.675-7.903
		c-3.338-5.899-9.461-8.682-15.36-8.458c-1.891,0.11-3.785,0.557-5.565,1.336c-3.452,1.447-6.457,4.118-8.459,8.014l-7.903,16.028
		c-4.119,8.237-14.136,11.576-22.372,7.569c-8.237-4.118-11.687-14.136-7.568-22.372l7.903-16.028
		c8.013-16.252,22.928-25.378,38.399-27.271c1.891-0.334,3.674-0.445,5.565-0.445c17.141-0.445,34.504,7.903,44.299,24.932
		l4.675,8.014c3.896-5.565,11.019-8.459,17.92-6.567C259.452,130.783,264.793,139.91,262.457,148.814z"/>
	<path style="fill:#7CCC92;" d="M136.022,281.021l-17.837,1.152c-13.332,0.898-22.202-13.45-15.533-25.006l4.622-8.008
		c4.005,5.525,10.979,8.221,17.791,6.378c8.913-2.386,14.196-11.538,11.815-20.445l-8.416-31.415
		c-2.096-9.638-11.753-15.065-20.683-12.645l-32.25,8.642c-8.902,2.386-14.185,11.538-11.804,20.445
		c1.871,6.973,7.878,11.679,14.679,12.266l-4.668,8.087c-19.984,34.572,6.708,77.62,46.598,75.027l17.837-1.152
		c9.206-0.598,16.174-8.538,15.587-17.74C153.163,287.397,145.109,280.559,136.022,281.021z"/>
</g>
<path style="fill:#34B772;" d="M262.457,148.814l-8.682,32.278c-2.337,8.682-11.576,14.581-21.148,11.576l-31.61-8.459
	c-8.904-2.337-14.136-11.576-11.799-20.48c1.891-6.901,7.791-11.464,14.47-12.243l-4.675-7.903
	c-3.338-5.899-9.461-8.682-15.36-8.458v-33.17c17.141-0.445,34.504,7.903,44.299,24.932l4.675,8.014
	c3.896-5.565,11.019-8.459,17.92-6.567C259.452,130.783,264.793,139.91,262.457,148.814z"/>
<g>
</g>
<g>
</g>
<g>
</g>
<g>
</g>
<g>
</g>
<g>
</g>
<g>
</g>
<g>
</g>
<g>
</g>
<g>
</g>
<g>
</g>
<g>
</g>
<g>
</g>
<g>
</g>
<g>
</g>
</svg>
