<?xml version="1.0" encoding="iso-8859-1"?>
<!-- Generator: Adobe Illustrator 19.0.0, SVG Export Plug-In . SVG Version: 6.00 Build 0)  -->
<svg version="1.1" id="Layer_1" xmlns="http://www.w3.org/2000/svg" xmlns:xlink="http://www.w3.org/1999/xlink" x="0px" y="0px"
	 viewBox="0 0 512 512" style="enable-background:new 0 0 512 512;" xml:space="preserve">
<path style="fill:#FFAF3C;" d="M499.642,246.822l-34.079-88.604c-3.934-10.228-13.76-16.975-24.717-16.975h-78.915v211.862h141.241
	v-87.268C503.172,259.334,501.976,252.888,499.642,246.822z"/>
<path style="fill:#FA9B32;" d="M456.739,353.103c-11.168-15.996-29.682-26.483-50.67-26.483c-3.006,0-5.937,0.287-8.828,0.702
	V141.241h-35.31v211.862H456.739z"/>
<path style="fill:#7F8499;" d="M503.172,379.586H44.138v-35.31h459.034c4.875,0,8.828,3.953,8.828,8.828v17.655
	C512,375.634,508.047,379.586,503.172,379.586z"/>
<g>
	<circle style="fill:#5B5D6E;" cx="406.069" cy="388.414" r="44.138"/>
	<circle style="fill:#5B5D6E;" cx="203.034" cy="388.414" r="44.138"/>
	<circle style="fill:#5B5D6E;" cx="114.759" cy="388.414" r="44.138"/>
</g>
<g>
	<circle style="fill:#AFB9D2;" cx="114.759" cy="388.414" r="26.483"/>
	<circle style="fill:#AFB9D2;" cx="203.034" cy="388.414" r="26.483"/>
	<circle style="fill:#AFB9D2;" cx="406.069" cy="388.414" r="26.483"/>
</g>
<path style="fill:#FFC850;" d="M370.759,114.759c0-19.501-15.809-35.31-35.31-35.31H35.31C15.809,79.448,0,95.257,0,114.759v264.828
	c0,4.875,3.953,8.828,8.828,8.828h35.31c4.875,0,8.828-3.953,8.828-8.828v-26.483c0-4.875,3.953-8.828,8.828-8.828h308.966V114.759z
	"/>
<g>
	<path style="fill:#FFF082;" d="M281.965,211.862c0-7.5-0.871-15-2.586-22.28c-1.129-4.75-5.888-7.702-10.621-6.564
		c-4.75,1.117-7.681,5.87-6.569,10.616c1.405,5.956,2.121,12.09,2.121,18.229c0,26.062-12.542,49.497-32.555,63.959
		c2.172-3.879,1.255-8.812-2.444-11.451c-3.975-2.836-9.483-1.909-12.319,2.06L198.5,292.359c-1.768,2.478-2.13,5.689-0.966,8.504
		c1.164,2.81,3.699,4.823,6.698,5.327l31.405,5.259c0.491,0.082,0.983,0.12,1.465,0.12c4.233,0,7.975-3.057,8.698-7.371
		c0.802-4.806-2.44-9.357-7.25-10.164l-1.839-0.308C264.335,276.5,281.965,246.029,281.965,211.862z"/>
	<path style="fill:#FFF082;" d="M167.155,288.681c-32.471-7.671-55.979-34.464-60.022-66.884c1.65,2.614,4.448,4.169,7.41,4.169
		c1.311,0,2.638-0.289,3.887-0.909c4.38-2.151,6.173-7.444,4.025-11.815l-14.06-28.565c-1.345-2.733-4-4.577-7.034-4.888
		c-3.017-0.332-6.001,0.97-7.862,3.375l-19.518,25.16c-2.991,3.849-2.284,9.397,1.56,12.384c3.871,3.005,9.397,2.293,12.388-1.565
		l1.11-1.43c2.525,42.473,32.226,78.271,74.062,88.15c0.681,0.163,1.362,0.237,2.035,0.237c4,0,7.62-2.737,8.586-6.797
		C174.845,294.556,171.905,289.802,167.155,288.681z"/>
	<path style="fill:#FFF082;" d="M219.896,152.59c-1.345,4.685,1.354,9.574,6.044,10.922l30.603,8.806
		c0.802,0.233,1.621,0.345,2.44,0.345c2.146,0,4.258-0.785,5.897-2.263c2.268-2.035,3.328-5.09,2.802-8.09l-5.5-31.367
		c-0.853-4.802-5.44-8.03-10.225-7.168c-4.802,0.841-8.009,5.418-7.172,10.22l0.353,2.014
		c-16.844-13.326-37.69-20.734-59.758-20.734c-29.931,0-57.681,13.539-76.138,37.151c-3,3.84-2.319,9.388,1.517,12.392
		c1.621,1.259,3.534,1.87,5.431,1.87c2.63,0,5.224-1.164,6.966-3.392c15.086-19.297,37.768-30.367,62.225-30.367
		c16.007,0,31.204,4.817,44.056,13.501C225.218,145.911,221.108,148.377,219.896,152.59z"/>
</g>
<g>
	<circle style="fill:#7F8499;" cx="114.759" cy="388.414" r="8.828"/>
	<circle style="fill:#7F8499;" cx="406.069" cy="388.414" r="8.828"/>
	<circle style="fill:#7F8499;" cx="203.034" cy="388.414" r="8.828"/>
</g>
<path style="fill:#5B5D6E;" d="M499.642,246.822l-27.027-70.27h-57.719c-4.875,0-8.828,3.953-8.828,8.828v22.582
	c0,8.045,3.657,15.655,9.939,20.68l26.945,21.556c4.695,3.756,10.53,5.803,16.544,5.803h42.739
	C501.645,252.876,500.788,249.801,499.642,246.822z"/>
<path style="fill:#FFF082;" d="M503.172,326.621h-8.828c-4.875,0-8.828-3.953-8.828-8.828v-8.828c0-4.875,3.953-8.828,8.828-8.828
	h8.828V326.621z"/>
<g>
</g>
<g>
</g>
<g>
</g>
<g>
</g>
<g>
</g>
<g>
</g>
<g>
</g>
<g>
</g>
<g>
</g>
<g>
</g>
<g>
</g>
<g>
</g>
<g>
</g>
<g>
</g>
<g>
</g>
</svg>
